<svg width="40" height="28" viewBox="0 0 40 28" fill="none" xmlns="http://www.w3.org/2000/svg">
<path d="M17.5684 9.60107C17.207 10.1187 16.7017 10.5068 16.0522 10.7656C15.4077 11.0195 14.6558 11.1465 13.7964 11.1465C12.9272 11.1465 12.1558 10.9438 11.4819 10.5386C10.8081 10.1284 10.2856 9.54736 9.91455 8.79541C9.54834 8.04346 9.36035 7.17188 9.35059 6.18066V5.25049C9.35059 3.64404 9.72412 2.39893 10.4712 1.51514C11.2231 0.631348 12.2778 0.189453 13.6353 0.189453C14.7485 0.189453 15.6445 0.475098 16.3232 1.04639C17.002 1.61279 17.417 2.41846 17.5684 3.46338H16.1621C15.8984 2.05225 15.0586 1.34668 13.6426 1.34668C12.7002 1.34668 11.9849 1.67871 11.4966 2.34277C11.0132 3.00195 10.769 3.95898 10.7642 5.21387V6.08545C10.7642 7.28174 11.0376 8.23389 11.5845 8.94189C12.1313 9.64502 12.8711 9.99658 13.8037 9.99658C14.3311 9.99658 14.7925 9.93799 15.188 9.8208C15.5835 9.70361 15.9106 9.50586 16.1694 9.22754V6.83252H13.7012V5.68994H17.5684V9.60107ZM22.9956 11.1465C21.9214 11.1465 21.0474 10.7949 20.3735 10.0918C19.6997 9.38379 19.3628 8.43896 19.3628 7.25732V7.0083C19.3628 6.22217 19.5117 5.52148 19.8096 4.90625C20.1123 4.28613 20.5322 3.80273 21.0693 3.45605C21.6113 3.10449 22.1973 2.92871 22.8271 2.92871C23.8574 2.92871 24.6582 3.26807 25.2295 3.94678C25.8008 4.62549 26.0864 5.59717 26.0864 6.86182V7.42578H20.7178C20.7373 8.20703 20.9644 8.83936 21.3989 9.32275C21.8384 9.80127 22.395 10.0405 23.0688 10.0405C23.5474 10.0405 23.9526 9.94287 24.2847 9.74756C24.6167 9.55225 24.9072 9.29346 25.1562 8.97119L25.9839 9.61572C25.3198 10.6362 24.3237 11.1465 22.9956 11.1465ZM22.8271 4.04199C22.2803 4.04199 21.8213 4.24219 21.4502 4.64258C21.0791 5.03809 20.8496 5.59473 20.7617 6.3125H24.7314V6.20996C24.6924 5.52148 24.5068 4.98926 24.1748 4.61328C23.8428 4.23242 23.3936 4.04199 22.8271 4.04199ZM29.4995 1.15625V3.0752H30.979V4.12256H29.4995V9.03711C29.4995 9.35449 29.5654 9.59375 29.6973 9.75488C29.8291 9.91113 30.0537 9.98926 30.3711 9.98926C30.5273 9.98926 30.7422 9.95996 31.0156 9.90137V11C30.6592 11.0977 30.3125 11.1465 29.9756 11.1465C29.3701 11.1465 28.9136 10.9634 28.606 10.5972C28.2983 10.231 28.1445 9.71094 28.1445 9.03711V4.12256H26.7017V3.0752H28.1445V1.15625H29.4995ZM4.1582 23.5059L6.5957 16.4688H7.82617L4.66211 25H3.66602L0.507812 16.4688H1.73242L4.1582 23.5059ZM8.47314 22.0405C8.47314 21.4712 8.58415 20.9591 8.80615 20.5044C9.03174 20.0496 9.34326 19.6987 9.74072 19.4517C10.1418 19.2046 10.5983 19.0811 11.1104 19.0811C11.9017 19.0811 12.5409 19.355 13.0278 19.9028C13.5184 20.4507 13.7637 21.1794 13.7637 22.0889V22.1587C13.7637 22.7244 13.6545 23.2329 13.436 23.6841C13.2212 24.1317 12.9115 24.4808 12.5068 24.7314C12.1058 24.9821 11.6439 25.1074 11.1211 25.1074C10.3333 25.1074 9.69417 24.8335 9.20361 24.2856C8.71663 23.7378 8.47314 23.0127 8.47314 22.1104V22.0405ZM9.47217 22.1587C9.47217 22.8032 9.62077 23.3206 9.91797 23.7109C10.2188 24.1012 10.6198 24.2964 11.1211 24.2964C11.626 24.2964 12.027 24.0994 12.3242 23.7056C12.6214 23.3081 12.77 22.7531 12.77 22.0405C12.77 21.4032 12.6178 20.8875 12.3135 20.4937C12.0127 20.0962 11.6117 19.8975 11.1104 19.8975C10.6198 19.8975 10.2241 20.0926 9.92334 20.4829C9.62256 20.8732 9.47217 21.4318 9.47217 22.1587ZM16.2559 25H15.1719V16H16.2559V25ZM19.4668 17.125V18.6602H20.6504V19.498H19.4668V23.4297C19.4668 23.6836 19.5195 23.875 19.625 24.0039C19.7305 24.1289 19.9102 24.1914 20.1641 24.1914C20.2891 24.1914 20.4609 24.168 20.6797 24.1211V25C20.3945 25.0781 20.1172 25.1172 19.8477 25.1172C19.3633 25.1172 18.998 24.9707 18.752 24.6777C18.5059 24.3848 18.3828 23.9688 18.3828 23.4297V19.498H17.2285V18.6602H18.3828V17.125H19.4668ZM25.4414 25C25.3841 24.8854 25.3376 24.6813 25.3018 24.3877C24.8398 24.8675 24.2884 25.1074 23.6475 25.1074C23.0745 25.1074 22.6037 24.9463 22.2349 24.624C21.8696 24.2982 21.687 23.8864 21.687 23.3887C21.687 22.7835 21.9162 22.3145 22.3745 21.9814C22.8364 21.6449 23.4845 21.4766 24.3188 21.4766H25.2856V21.02C25.2856 20.6727 25.1818 20.397 24.9741 20.1929C24.7664 19.9852 24.4603 19.8813 24.0557 19.8813C23.7012 19.8813 23.404 19.9709 23.1641 20.1499C22.9242 20.3289 22.8042 20.5456 22.8042 20.7998H21.8052C21.8052 20.5098 21.9072 20.2305 22.1113 19.9619C22.319 19.6898 22.5983 19.4749 22.9492 19.3174C23.3037 19.1598 23.6922 19.0811 24.1147 19.0811C24.7843 19.0811 25.3089 19.2493 25.6885 19.5859C26.068 19.9189 26.265 20.3791 26.2793 20.9663V23.6411C26.2793 24.1746 26.3473 24.599 26.4834 24.9141V25H25.4414ZM23.7925 24.2427C24.104 24.2427 24.3994 24.1621 24.6787 24.001C24.958 23.8398 25.1603 23.6304 25.2856 23.3726V22.1802H24.5068C23.2894 22.1802 22.6807 22.5365 22.6807 23.249C22.6807 23.5605 22.7845 23.804 22.9922 23.9795C23.1999 24.1549 23.4666 24.2427 23.7925 24.2427ZM27.6475 21.7773C27.6475 20.7891 27.876 20.0039 28.333 19.4219C28.79 18.8359 29.3955 18.543 30.1494 18.543C30.9229 18.543 31.5264 18.8164 31.96 19.3633L32.0127 18.6602H33.0029V24.8477C33.0029 25.668 32.7588 26.3145 32.2705 26.7871C31.7861 27.2598 31.1338 27.4961 30.3135 27.4961C29.8564 27.4961 29.4092 27.3984 28.9717 27.2031C28.5342 27.0078 28.2002 26.7402 27.9697 26.4004L28.5322 25.75C28.9971 26.3242 29.5654 26.6113 30.2373 26.6113C30.7646 26.6113 31.1748 26.4629 31.4678 26.166C31.7646 25.8691 31.9131 25.4512 31.9131 24.9121V24.3672C31.4795 24.8672 30.8877 25.1172 30.1377 25.1172C29.3955 25.1172 28.7939 24.8184 28.333 24.2207C27.876 23.623 27.6475 22.8086 27.6475 21.7773ZM28.7373 21.9004C28.7373 22.6152 28.8838 23.1777 29.1768 23.5879C29.4697 23.9941 29.8799 24.1973 30.4072 24.1973C31.0908 24.1973 31.5928 23.8867 31.9131 23.2656V20.3711C31.5811 19.7656 31.083 19.4629 30.4189 19.4629C29.8916 19.4629 29.4795 19.668 29.1826 20.0781C28.8857 20.4883 28.7373 21.0957 28.7373 21.9004ZM36.9868 25.1074C36.1991 25.1074 35.5581 24.8496 35.064 24.334C34.5698 23.8148 34.3228 23.1219 34.3228 22.2554V22.0728C34.3228 21.4963 34.432 20.9824 34.6504 20.5312C34.8724 20.0765 35.1803 19.722 35.5742 19.4678C35.9717 19.21 36.4014 19.0811 36.8633 19.0811C37.6188 19.0811 38.2061 19.3299 38.625 19.8276C39.0439 20.3254 39.2534 21.0379 39.2534 21.9653V22.3789H35.3164C35.3307 22.9518 35.4972 23.4155 35.8159 23.77C36.1382 24.1209 36.5464 24.2964 37.0405 24.2964C37.3914 24.2964 37.6886 24.2248 37.9321 24.0815C38.1756 23.9383 38.3887 23.7485 38.5713 23.5122L39.1782 23.9849C38.6912 24.7332 37.9608 25.1074 36.9868 25.1074ZM36.8633 19.8975C36.4622 19.8975 36.1257 20.0443 35.8535 20.3379C35.5814 20.6279 35.4131 21.0361 35.3486 21.5625H38.2598V21.4873C38.2311 20.9824 38.0951 20.5921 37.8516 20.3164C37.6081 20.0371 37.2786 19.8975 36.8633 19.8975Z" fill="black"/>
</svg>
